inDegrees=no
num_controls=7
num_derivatives=13
num_iterations=137
num_multipliers=7
num_parameters=0
num_slacks=7
num_states=26
objective=5.644556
objective_accelerations=0.767185
objective_balance=0.064355
objective_effort=0.319132
objective_height=4.470203
objective_ligament=0.023681
solver_duration=1532.154836
status=Solve_Succeeded
success=true
DataType=double
version=3
OpenSimVersion=4.4-2022-07-23-0e9fedc
endheader
time	/jointset/ground_pelvis/pelvis_tilt/value	/jointset/ground_pelvis/pelvis_tx/value	/jointset/ground_pelvis/pelvis_ty/value	/jointset/hip_l/hip_flexion_l/value	/jointset/hip_l/hip_adduction_l/value	/jointset/hip_l/hip_rotation_l/value	/jointset/back/lumbar_extension/value	/jointset/patellofemoral_l/patellar_flexion_l/value	/jointset/knee_l/knee_flexion_l/value	/jointset/knee_l/knee_adduction_l/value	/jointset/knee_l/knee_rotation_l/value	/jointset/ankle_l/ankle_angle_l/value	/jointset/subtalar_l/subtalar_angle_l/value	/jointset/ground_pelvis/pelvis_tilt/speed	/jointset/ground_pelvis/pelvis_tx/speed	/jointset/ground_pelvis/pelvis_ty/speed	/jointset/hip_l/hip_flexion_l/speed	/jointset/hip_l/hip_adduction_l/speed	/jointset/hip_l/hip_rotation_l/speed	/jointset/back/lumbar_extension/speed	/jointset/patellofemoral_l/patellar_flexion_l/speed	/jointset/knee_l/knee_flexion_l/speed	/jointset/knee_l/knee_adduction_l/speed	/jointset/knee_l/knee_rotation_l/speed	/jointset/ankle_l/ankle_angle_l/speed	/jointset/subtalar_l/subtalar_angle_l/speed	/forceset/tau_hip_flexion_l	/forceset/tau_hip_adduction_l	/forceset/tau_hip_rotation_l	/forceset/tau_knee_flexion_l	/forceset/tau_ankle_angle_l	/forceset/tau_subtalar_angle_l	/forceset/tau_lumbar_extension	lambda_cid13_p0	lambda_cid13_p1	lambda_cid13_p2	lambda_cid13_p3	lambda_cid13_p4	lambda_cid13_p5	lambda_cid14_p0	/jointset/ground_pelvis/pelvis_tilt/accel	/jointset/ground_pelvis/pelvis_tx/accel	/jointset/ground_pelvis/pelvis_ty/accel	/jointset/hip_l/hip_flexion_l/accel	/jointset/hip_l/hip_adduction_l/accel	/jointset/hip_l/hip_rotation_l/accel	/jointset/back/lumbar_extension/accel	/jointset/patellofemoral_l/patellar_flexion_l/accel	/jointset/knee_l/knee_flexion_l/accel	/jointset/knee_l/knee_adduction_l/accel	/jointset/knee_l/knee_rotation_l/accel	/jointset/ankle_l/ankle_angle_l/accel	/jointset/subtalar_l/subtalar_angle_l/accel	gamma_cid13_p0	gamma_cid13_p1	gamma_cid13_p2	gamma_cid13_p3	gamma_cid13_p4	gamma_cid13_p5	gamma_cid14_p0
1.5	-0.4461761656529616	-0.05361074050810398	0.7516666413167814	1.20991180378643	-0.437318384767577	-0.2086374461757181	-0.2306205910691427	0.7707931728203875	0.7707931728203901	-0.1562201352017815	-0.1432187833338134	0.0623646826380338	-0.05746911155801864	0.8858596750491718	0.3444674379401085	0.5645461781004349	-2.728541705044106	0.2117970715283057	-0.7186289127740823	0.3000640662071	-1.916831474389425	-1.916831474389554	-0.06808070252598904	0.1436114343169251	-0.2206690866835466	0.1333849925368719	-0.2129409566256071	0.02298631504129846	-0.001799550071056634	-0.1764146977834748	0.05246443149015467	0.05410321203417694	0.1936935622388177	-15.56701819265514	-23.31083903804834	6.281172033540784	-8.203128382561792	-520.0315463792973	-64.47856243065074	-26.54604848739931	0.8407048082386618	0.8089545494743874	-0.4925841722067111	-1.529837819900658	0.7336547878432447	-0.114212022575545	1.612017561972467	-1.297359171391545	-1.297359171391597	0.14540469921548	0.2435398864806196	-0.3946740734074749	0.582966164507684	2.57176428629471e-07	1.244319964235908e-06	-7.986853473123903e-07	2.441574896271339e-07	4.825011654236425e-07	-2.854407584901869e-07	3.351513470208519e-07
1.51	-0.4372756507842965	-0.05012595615641219	0.7572863494478659	1.182551737657884	-0.4351652890450791	-0.2158294456750421	-0.227540874920501	0.7515623575586932	0.7515623575587486	-0.1568959907973713	-0.1417726879527333	0.060138275494117	-0.05610789765942357	0.8941113773294588	0.3524431660503845	0.5592734073950303	-2.743083913665531	0.2188005627962055	-0.7196748461044904	0.3158510238904264	-1.929059280263326	-1.929059280263332	-0.06708563738727438	0.1455877297801201	-0.2245653374037462	0.1388529353816569	-0.2056429308042622	0.02218552400468337	-0.001487766722990825	-0.1741511286384038	0.05153286661083609	0.05291340661165	0.1879318055966323	-15.6074334471327	-22.8112968337567	6.22924947270793	-7.843334562190956	-515.5178163624298	-64.66832613555364	-27.39755258610294	0.7976181812629952	0.7849932933447317	-0.562824880608942	-1.358260360752721	0.6803563899784719	-0.08506471631866976	1.557813926913025	-1.144714423522559	-1.144714423503976	0.07749809836849304	0.1714683691761687	-0.3800167627438417	0.5278550208423984	2.59537911387607e-07	1.316186059847729e-06	-7.833914253892592e-07	2.523164023141917e-07	5.097166622573117e-07	-2.503926305568798e-07	3.376281323678389e-07
1.52	-0.4282965758441599	-0.0465627922533098	0.7628496895997161	1.15505787984763	-0.4329428263911557	-0.2230289606532665	-0.2243041333839451	0.7322174196126486	0.7322174196127329	-0.1575617076062419	-0.140307470818365	0.05787432260471911	-0.05469217499710492	0.9015716893433104	0.360143348222232	0.5532725822535898	-2.755300041386536	0.2256704578126948	-0.7201320085567009	0.3314691437897722	-1.939656011262549	-1.93965601126243	-0.06605294516178899	0.1474357849607985	-0.2281782357806505	0.1442867452815842	-0.1983449049828614	0.02138473296812357	-0.001175983375361691	-0.1718875594932697	0.05060130173154284	0.05172360118920376	0.1821700489544708	-15.65188324771747	-22.31363766134072	6.180585470532884	-7.503179558826767	-511.069796000553	-64.89639670086396	-28.25099625189185	0.6824267549517223	0.7538453617886216	-0.6381950594138797	-1.064621639816328	0.7069355375611763	0.003542153063995163	1.578250005176338	-0.9711441964557542	-0.9711441964557435	0.1529301165696267	0.2178918299772715	-0.3380036047485399	0.5761395755360764	2.588676798130696e-07	1.402135782579694e-06	-7.449005210164158e-07	2.642664977084125e-07	5.348164194309452e-07	-2.148477226339464e-07	3.385491935266926e-07
1.53	-0.4192468877199106	-0.04292407188376962	0.7683494755825169	1.12745336735721	-0.4306524219956397	-0.2302304385277714	-0.220912309382607	0.712774605882998	0.712774605883018	-0.1582169420383091	-0.1388246335832167	0.0555756440380989	-0.053222381107496	0.9082239656771454	0.3675471487889712	0.5465696967256887	-2.765206502746564	0.2323809932044536	-0.7200609080620856	0.346849936554134	-1.948628585137427	-1.948628585137381	-0.06499950360003694	0.1491162601217932	-0.231505909666104	0.1496611788085074	-0.1909130258672751	0.02034021632162406	-0.0009146919906914513	-0.1699454050178069	0.05003411904762504	0.05035060601203811	0.1762661766704397	-15.59479299627565	-21.75436846052134	6.122293149889324	-7.164271389980739	-506.7654233869126	-65.00879386065391	-29.10712829329283	0.6353253543476028	0.7256686291389981	-0.7034589562546004	-0.8942645809914441	0.6485367866991644	0.02459539824028062	1.511135923544676	-0.818659038596608	-0.8186590386076704	0.0809788339071878	0.1406123206184728	-0.3223735513866124	0.5162942801097125	2.549762517600667e-07	1.50304935912681e-06	-6.817628227907533e-07	2.802447247289939e-07	5.576682032157907e-07	-1.78774985972035e-07	3.378172977356547e-07
1.54	-0.4101349373759731	-0.03921290926355774	0.7737788079786835	1.099761669013814	-0.4282958273968613	-0.2374280651172042	-0.2173680490513293	0.6932503974034819	0.6932503974034341	-0.1588617565231923	-0.1373254942041623	0.05324524387843866	-0.05169920307484999	0.9140241332809091	0.3746317983565705	0.53918186492676	-2.772737211982413	0.238908498464839	-0.7193617515442701	0.3619564097776461	-1.955934961236014	-1.955934961236041	-0.06396895572111158	0.150696213741102	-0.2345225543892707	0.1549635738890049	-0.1834811467516488	0.01929569967516769	-0.0006534006060658905	-0.1680032505423229	0.04946693636372586	0.04897761083493118	0.170362304386422	-15.54012737413595	-21.19728739814959	6.067334565998141	-6.850094962768468	-502.4992642896314	-65.15566587253269	-29.9667814025815	0.5120050089376538	0.6900151619605749	-0.7751843136194143	-0.5894712149801464	0.6703295112864933	0.1291533577040101	1.523386097006425	-0.637904641197388	-0.6379046411973855	0.148351380004302	0.1977875216400632	-0.2757977722913068	0.5617318862509078	2.319670006311688e-07	1.622715560823489e-06	-5.426440674403523e-07	3.200685166410225e-07	5.44007254625923e-07	-1.402363603483282e-07	3.288095913892129e-07
1.55	-0.4009692328836395	-0.03543260338156889	0.7791308804448681	1.072006721328778	-0.425874841030691	-0.2446162697313326	-0.2136743092133405	0.6736618139223824	0.6736618139223861	-0.1594957848207863	-0.1358115940160601	0.05088636655358929	-0.05012323834368679	0.9189693760955718	0.3813628754729952	0.5311246454661376	-2.777841665376457	0.2452520397802624	-0.7181730963568768	0.3767254125738402	-1.961493226476195	-1.961493226476158	-0.06284727022638435	0.1520687932626751	-0.2372031011763908	0.1602101028322793	-0.1761075122327676	0.01819516685216165	-0.000420118144220946	-0.1659843384452057	0.04871774595829904	0.04745743051727185	0.1644445966217063	-15.55830843396733	-20.56235611196839	5.998624410339365	-6.383549862891424	-498.3647685390425	-65.17588774908724	-30.81833446804218	0.4636502327487702	0.6547635519077795	-0.8370967256942441	-0.4093540192130507	0.6106016369315538	0.1299011058990054	1.443735584025784	-0.4715711821766332	-0.4715711821668986	0.09282257253874486	0.1046129530834753	-0.2566619602790117	0.5029519708719774	1.869306924800451e-07	1.763988048018577e-06	-3.159819201853662e-07	3.873665463627606e-07	4.882772882999749e-07	-9.885660179037906e-08	3.102667120115453e-07
1.56	-0.3917585027001563	-0.03158696481533107	0.7843991595237647	1.044213044786283	-0.4233915722123142	-0.2517893518922503	-0.2098348637047697	0.6540262910455251	0.6540262910455907	-0.1601188471757381	-0.1342844440756427	0.04850218799519942	-0.04849544060858964	0.9230292715109656	0.3876983352063666	0.5224231874691189	-2.780482983474365	0.2513649889061297	-0.7163372609038047	0.3910975438940366	-1.9653228403863	-1.965322840386198	-0.06177576719838167	0.1533461642109503	-0.2395828010977757	0.1653301746758075	-0.1687338777138528	0.01709463402918938	-0.0001868356821962139	-0.1639654263480939	0.04796855555288556	0.04593725019965517	0.1585268888570021	-15.58540850268658	-19.92825899364589	5.932784276617058	-5.907538931650139	-494.3501446376741	-65.23730671216246	-31.65316947719826	0.334935529084012	0.6108916853498103	-0.9040320208986404	-0.09684415575305416	0.6242110733752287	0.2585894108397454	1.444011801806901	-0.2921743751822425	-0.2921743751822469	0.1383148866594071	0.178745806980436	-0.2156283991443619	0.5364404663015979	1.493371136460364e-07	1.886072218175447e-06	-1.284714653891737e-07	4.381918650379196e-07	4.479801322692105e-07	-6.346014742103259e-08	2.937283749712302e-07
1.57	-0.3825116736148837	-0.02768001385169256	0.7895772892430316	1.016405385104756	-0.4208482885591558	-0.2589414433113474	-0.2058538358053699	0.6343613182345778	0.6343613182346535	-0.1607309907413941	-0.1327454228153193	0.0460958417689535	-0.04681694953869518	0.9261808812607708	0.3936183184841955	0.5131037301281883	-2.780625431024254	0.2572494693711281	-0.7139846947378515	0.4050255305682071	-1.967367658856876	-1.967367658856892	-0.06065474637777009	0.1544335905946968	-0.2416281551304649	0.1703479685784305	-0.1613055942034426	0.01567861571053863	-2.698204048615493e-05	-0.1621812693363508	0.04756303182931294	0.04435465706773496	0.1525420317360095	-15.51647615141159	-19.2846742199079	5.866349134439988	-5.483621441464665	-490.5143446271813	-65.27911582985723	-32.46653901685318	0.2818830420175885	0.5716179600026436	-0.9606735532393457	0.09054552590808548	0.5639089422792188	0.2382833408782409	1.354816287609919	-0.1150804640483854	-0.1150804640661426	0.09910303429580221	0.06998528846598211	-0.1901903874488939	0.4811035659630666	1.210469464584216e-07	1.984170992034547e-06	1.009937383352681e-08	4.684262949048551e-07	4.269739891074256e-07	-3.554282328743938e-08	2.796957158526057e-07
